<svg width="88" height="21" viewBox="0 0 88 21" fill="none" xmlns="http://www.w3.org/2000/svg">
<path d="M0.83 20.09C0.63 20.09 0.49 20.02 0.41 19.88C0.33 19.74 0.29 19.59 0.29 19.43C0.31 19.09 0.39 18.9 0.53 18.86C0.67 18.82 0.84 18.8 1.04 18.8C1.68 18.8 2.13 18.69 2.39 18.47C2.65 18.23 2.81 17.94 2.87 17.6C2.95 17.24 2.99 16.87 2.99 16.49V4.58C2.99 4.2 2.95 3.84 2.87 3.5C2.81 3.14 2.65 2.85 2.39 2.63C2.13 2.39 1.68 2.27 1.04 2.27C0.84 2.27 0.67 2.25 0.53 2.21C0.39 2.17 0.31 1.98 0.29 1.64C0.29 1.48 0.33 1.33 0.41 1.19C0.49 1.05 0.63 0.98 0.83 0.98C1.47 1 2.07 1.02 2.63 1.04C3.19 1.06 3.77 1.07 4.37 1.07C5.59 1.07 6.84 1.04 8.12 0.98C8.32 0.98 8.46 1.05 8.54 1.19C8.62 1.33 8.66 1.48 8.66 1.64C8.64 1.98 8.56 2.17 8.42 2.21C8.3 2.25 8.13 2.27 7.91 2.27C7.29 2.27 6.84 2.39 6.56 2.63C6.3 2.85 6.14 3.14 6.08 3.5C6.02 3.84 5.98 4.2 5.96 4.58V10.01C6.3 9.93 6.69 9.73 7.13 9.41C7.59 9.07 8.05 8.71 8.51 8.33C9.27 7.63 10.01 6.88 10.73 6.08C11.45 5.26 12.12 4.48 12.74 3.74C13.54 2.84 13.45 2.36 12.47 2.3C12.25 2.28 12.11 2.07 12.05 1.67C12.05 1.49 12.1 1.33 12.2 1.19C12.3 1.05 12.43 0.98 12.59 0.98C13.11 1.02 13.66 1.05 14.24 1.07C14.82 1.07 15.37 1.07 15.89 1.07C16.29 1.07 16.75 1.06 17.27 1.04C17.79 1.02 18.24 1 18.62 0.98C18.82 0.98 18.96 1.05 19.04 1.19C19.14 1.33 19.19 1.49 19.19 1.67C19.17 1.97 19.1 2.15 18.98 2.21C18.88 2.27 18.75 2.3 18.59 2.3C17.85 2.26 17.12 2.38 16.4 2.66C15.68 2.94 14.91 3.49 14.09 4.31C13.83 4.59 13.49 4.95 13.07 5.39C12.67 5.81 12.24 6.25 11.78 6.71C11.34 7.17 10.92 7.6 10.52 8C10.14 8.4 9.83 8.73 9.59 8.99C9.35 9.25 9.23 9.38 9.23 9.38C10.41 10.8 11.6 12.11 12.8 13.31C14.02 14.51 15.06 15.57 15.92 16.49C16.6 17.17 17.15 17.71 17.57 18.11C18.01 18.49 18.57 18.72 19.25 18.8C19.41 18.82 19.57 18.85 19.73 18.89C19.89 18.91 19.98 19.09 20 19.43C20 19.59 19.96 19.74 19.88 19.88C19.8 20.02 19.66 20.09 19.46 20.09C19.04 20.07 18.71 20.05 18.47 20.03C18.25 20.03 18.03 20.02 17.81 20C17.61 20 17.31 20 16.91 20H14.99C13.89 18.78 12.76 17.52 11.6 16.22C10.46 14.92 9.23 13.51 7.91 11.99C7.55 11.57 7.21 11.27 6.89 11.09C6.59 10.91 6.28 10.81 5.96 10.79V16.49C5.98 16.87 6.02 17.24 6.08 17.6C6.14 17.94 6.3 18.23 6.56 18.47C6.84 18.69 7.29 18.8 7.91 18.8C8.13 18.8 8.3 18.82 8.42 18.86C8.56 18.9 8.64 19.09 8.66 19.43C8.66 19.59 8.62 19.74 8.54 19.88C8.46 20.02 8.32 20.09 8.12 20.09C6.84 20.03 5.6 20 4.4 20C3.8 20 3.21 20 2.63 20C2.07 20.02 1.47 20.05 0.83 20.09Z" fill="url(#paint0_radial_7_2)"/>
<path d="M24.8059 20.24C23.8992 20.24 23.1792 19.9667 22.6459 19.42C22.1125 18.8733 21.8459 18.1533 21.8459 17.26V13.56C21.8459 13.32 21.8325 13.1 21.8059 12.9C21.7925 12.6867 21.7192 12.52 21.5859 12.4C21.4525 12.2667 21.1992 12.2 20.8259 12.2C20.7059 12.2 20.5925 12.1867 20.4859 12.16C20.3925 12.12 20.3459 12 20.3459 11.8C20.3459 11.6 20.4525 11.48 20.6659 11.44C21.2792 11.3467 21.7459 11.2533 22.0659 11.16C22.3992 11.0667 22.6525 10.9867 22.8259 10.92C22.9992 10.8533 23.1525 10.8133 23.2859 10.8C23.3925 10.7867 23.4792 10.8067 23.5459 10.86C23.6259 10.9133 23.6659 11.02 23.6659 11.18V17.24C23.6659 17.68 23.7592 18.04 23.9459 18.32C24.1459 18.6 24.3925 18.8067 24.6859 18.94C24.9792 19.0733 25.2792 19.14 25.5859 19.14C26.0525 19.14 26.4592 19.06 26.8059 18.9C27.1525 18.7267 27.4325 18.5333 27.6459 18.32C27.8592 18.0933 27.9992 17.9067 28.0659 17.76V13.56C28.0659 13.32 28.0525 13.1 28.0259 12.9C28.0125 12.6867 27.9392 12.52 27.8059 12.4C27.6725 12.2667 27.4192 12.2 27.0459 12.2C26.9259 12.2 26.8125 12.1867 26.7059 12.16C26.6125 12.12 26.5659 12 26.5659 11.8C26.5659 11.6 26.6725 11.48 26.8859 11.44C27.4992 11.3467 27.9659 11.2533 28.2859 11.16C28.6192 11.0667 28.8725 10.9867 29.0459 10.92C29.2192 10.8533 29.3725 10.8133 29.5059 10.8C29.6125 10.7867 29.6992 10.8067 29.7659 10.86C29.8459 10.9133 29.8859 11.02 29.8859 11.18V18.1C29.8859 18.8867 30.4125 19.28 31.4659 19.28C31.6125 19.28 31.7059 19.32 31.7459 19.4C31.7859 19.48 31.8059 19.5667 31.8059 19.66C31.8059 19.8467 31.6925 19.96 31.4659 20L28.2459 20.22C28.1525 20.22 28.0992 20.18 28.0859 20.1C28.0725 20.02 28.0659 19.9267 28.0659 19.82V18.7H28.0259C27.7725 18.94 27.4992 19.18 27.2059 19.42C26.9259 19.66 26.5925 19.8533 26.2059 20C25.8325 20.16 25.3659 20.24 24.8059 20.24ZM32.7641 10.78C32.6308 10.82 32.5175 10.8 32.4241 10.72C32.3441 10.64 32.3041 10.54 32.3041 10.42C32.3041 10.3 32.3708 10.2133 32.5041 10.16C33.6375 9.73333 34.2041 9.14 34.2041 8.38C34.2041 8.14 34.1241 7.94667 33.9641 7.8C33.8175 7.64 33.6441 7.50667 33.4441 7.4C33.2575 7.28 33.0841 7.14667 32.9241 7C32.7775 6.85333 32.7041 6.66667 32.7041 6.44C32.7041 6.18667 32.7975 5.96 32.9841 5.76C33.1841 5.54667 33.4241 5.44 33.7041 5.44C34.0908 5.44 34.4375 5.56 34.7441 5.8C35.0508 6.04 35.2908 6.34667 35.4641 6.72C35.6375 7.08 35.7241 7.44667 35.7241 7.82C35.7241 8.36667 35.5708 8.84 35.2641 9.24C34.9708 9.62667 34.5975 9.94667 34.1441 10.2C33.6908 10.4533 33.2308 10.6467 32.7641 10.78ZM40.2057 20.24C39.179 20.24 38.319 20.06 37.6257 19.7C36.9457 19.3267 36.6057 18.7933 36.6057 18.1C36.6057 17.7133 36.719 17.4 36.9457 17.16C37.1857 16.92 37.4924 16.8 37.8657 16.8C38.1057 16.8 38.299 16.8667 38.4457 17C38.6057 17.12 38.6857 17.2067 38.6857 17.26C38.6857 17.3 38.6057 17.3933 38.4457 17.54C38.299 17.6733 38.2257 17.8933 38.2257 18.2C38.2257 18.5733 38.399 18.8867 38.7457 19.14C39.1057 19.38 39.6457 19.5 40.3657 19.5C40.9924 19.5 41.479 19.3667 41.8257 19.1C42.1857 18.82 42.3657 18.4333 42.3657 17.94C42.3657 17.54 42.2324 17.2333 41.9657 17.02C41.7124 16.7933 41.379 16.6133 40.9657 16.48C40.5657 16.3467 40.1324 16.2133 39.6657 16.08C39.2124 15.9467 38.779 15.78 38.3657 15.58C37.9524 15.38 37.6124 15.1067 37.3457 14.76C37.0924 14.4 36.9657 13.9267 36.9657 13.34C36.9657 12.74 37.1457 12.2467 37.5057 11.86C37.8657 11.4733 38.3257 11.1867 38.8857 11C39.4457 10.8 40.0124 10.7 40.5857 10.7C41.079 10.7 41.5457 10.7733 41.9857 10.92C42.4257 11.0533 42.7857 11.26 43.0657 11.54C43.359 11.82 43.5057 12.1733 43.5057 12.6C43.5057 12.9333 43.399 13.2333 43.1857 13.5C42.9724 13.7667 42.679 13.9 42.3057 13.9C42.0657 13.9 41.8657 13.84 41.7057 13.72C41.559 13.5867 41.4857 13.4933 41.4857 13.44C41.4857 13.4133 41.5324 13.3667 41.6257 13.3C41.7324 13.22 41.8324 13.12 41.9257 13C42.019 12.8667 42.0657 12.7 42.0657 12.5C42.039 12.1133 41.8524 11.8267 41.5057 11.64C41.159 11.4533 40.7724 11.36 40.3457 11.36C39.879 11.36 39.4457 11.4733 39.0457 11.7C38.6457 11.9267 38.4457 12.2533 38.4457 12.68C38.4457 13.0667 38.5257 13.3667 38.6857 13.58C38.859 13.7933 39.1257 13.98 39.4857 14.14C39.859 14.2867 40.339 14.4533 40.9257 14.64C41.5124 14.8267 42.0257 15.02 42.4657 15.22C42.919 15.42 43.2657 15.6867 43.5057 16.02C43.759 16.34 43.8857 16.78 43.8857 17.34C43.8857 17.9 43.7257 18.4 43.4057 18.84C43.0857 19.28 42.6457 19.6267 42.0857 19.88C41.539 20.12 40.9124 20.24 40.2057 20.24ZM54.746 20.2L51.426 9.8C51.2127 9.25333 50.9993 8.86 50.786 8.62C50.5727 8.38 50.2527 8.22 49.826 8.14C49.6393 8.1 49.506 8.06667 49.426 8.04C49.3593 8.01333 49.326 7.89333 49.326 7.68C49.326 7.45333 49.406 7.33333 49.566 7.32C49.726 7.29333 49.9127 7.28 50.126 7.28C51.0193 7.29333 51.7127 7.46 52.206 7.78C52.6993 8.08667 53.0927 8.62 53.386 9.38L55.666 16.7H55.746L58.186 7.38H59.226L62.486 16.7H62.546L64.806 9.16C64.9127 8.73333 64.906 8.46667 64.786 8.36C64.6793 8.24 64.3927 8.18 63.926 8.18C63.7927 8.18 63.6793 8.16667 63.586 8.14C63.4927 8.11333 63.4393 7.98667 63.426 7.76C63.426 7.65333 63.4527 7.55333 63.506 7.46C63.5593 7.36667 63.646 7.32 63.766 7.32C64.1927 7.33333 64.5593 7.34667 64.866 7.36C65.186 7.37333 65.546 7.38 65.946 7.38C66.2127 7.38 66.4327 7.38 66.606 7.38C66.7793 7.36667 66.9527 7.36 67.126 7.36C67.3127 7.34667 67.546 7.33333 67.826 7.32C67.9593 7.32 68.0527 7.36667 68.106 7.46C68.1593 7.55333 68.186 7.65333 68.186 7.76C68.1727 7.98667 68.1193 8.11333 68.026 8.14C67.946 8.16667 67.8327 8.18 67.686 8.18C67.1794 8.18 66.7594 8.28 66.426 8.48C66.106 8.66667 65.8727 9.02 65.726 9.54L62.446 20.2H61.506L58.266 10.66L55.686 20.2H54.746ZM72.1465 20.24C71.1198 20.24 70.2532 20.02 69.5465 19.58C68.8532 19.14 68.3332 18.5533 67.9865 17.82C67.6398 17.0867 67.4665 16.2867 67.4665 15.42C67.4665 14.8333 67.5665 14.2667 67.7665 13.72C67.9798 13.16 68.2798 12.6533 68.6665 12.2C69.0532 11.7333 69.5198 11.3667 70.0665 11.1C70.6132 10.8333 71.2332 10.7 71.9265 10.7C73.1532 10.7 74.0732 11.02 74.6865 11.66C75.3132 12.2867 75.6732 13.0867 75.7665 14.06C75.7665 14.5267 75.6332 14.8333 75.3665 14.98C75.1132 15.1267 74.7798 15.2 74.3665 15.2H69.5065C69.5065 15.9733 69.6132 16.6667 69.8265 17.28C70.0398 17.88 70.3732 18.36 70.8265 18.72C71.2932 19.0667 71.9065 19.24 72.6665 19.24C73.2265 19.24 73.7065 19.12 74.1065 18.88C74.5065 18.64 74.8932 18.22 75.2665 17.62C75.3732 17.4867 75.5198 17.48 75.7065 17.6C75.8132 17.6533 75.8798 17.74 75.9065 17.86C75.9332 17.9667 75.9198 18.06 75.8665 18.14C75.4532 18.7933 74.9332 19.3067 74.3065 19.68C73.6798 20.0533 72.9598 20.24 72.1465 20.24ZM69.5065 14.44H72.7665C73.0865 14.44 73.3398 14.38 73.5265 14.26C73.7265 14.1267 73.8332 13.9067 73.8465 13.6C73.8465 13.0267 73.6865 12.52 73.3665 12.08C73.0598 11.6267 72.5798 11.4 71.9265 11.4C71.2598 11.4 70.6998 11.6667 70.2465 12.2C69.8065 12.7333 69.5598 13.48 69.5065 14.44ZM78.6255 20.28C78.5055 20.28 78.4122 20.24 78.3455 20.16C78.2789 20.08 78.2455 19.9867 78.2455 19.88V8.2C78.2455 7.96 78.2322 7.74 78.2055 7.54C78.1922 7.32667 78.1189 7.16 77.9855 7.04C77.8522 6.90667 77.5989 6.84 77.2255 6.84C77.1055 6.84 76.9922 6.82667 76.8855 6.8C76.7922 6.76 76.7455 6.64 76.7455 6.44C76.7455 6.24 76.8522 6.12 77.0655 6.08C77.6789 5.98667 78.1455 5.89333 78.4655 5.8C78.7989 5.70667 79.0522 5.62667 79.2255 5.56C79.3989 5.49333 79.5522 5.45333 79.6855 5.44C79.7922 5.42667 79.8789 5.44667 79.9455 5.5C80.0255 5.55333 80.0655 5.66 80.0655 5.82V11.86H80.1255C80.5255 11.46 80.9722 11.1667 81.4655 10.98C81.9589 10.7933 82.4322 10.7 82.8855 10.7C83.6722 10.7 84.3789 10.9 85.0055 11.3C85.6455 11.7 86.1522 12.2533 86.5255 12.96C86.8989 13.6533 87.0855 14.4667 87.0855 15.4C87.0855 16.3067 86.8722 17.1267 86.4455 17.86C86.0189 18.5933 85.4589 19.1733 84.7655 19.6C84.0722 20.0267 83.3189 20.24 82.5055 20.24C81.3189 20.24 80.2922 19.9133 79.4255 19.26H79.3255C79.2322 19.46 79.1389 19.68 79.0455 19.92C78.9655 20.16 78.8255 20.28 78.6255 20.28ZM82.3255 19.56C83.1255 19.56 83.7789 19.1933 84.2855 18.46C84.7922 17.7267 85.0455 16.7333 85.0455 15.48C85.0455 14.8533 84.9455 14.2533 84.7455 13.68C84.5589 13.1067 84.2522 12.6333 83.8255 12.26C83.4122 11.8867 82.8655 11.7 82.1855 11.7C81.7322 11.7 81.3322 11.78 80.9855 11.94C80.6389 12.1 80.3322 12.3267 80.0655 12.62V17.9C80.1055 18.0867 80.2122 18.3133 80.3855 18.58C80.5722 18.8333 80.8255 19.06 81.1455 19.26C81.4655 19.46 81.8589 19.56 82.3255 19.56Z" fill="#333333"/>
<defs>
<radialGradient id="paint0_radial_7_2" cx="0" cy="0" r="1" gradientUnits="userSpaceOnUse" gradientTransform="translate(5.75446 20.3889) rotate(-88.795) scale(18.8931 49.4644)">
<stop stop-color="#94E2F9"/>
<stop offset="1" stop-color="#019DCA"/>
</radialGradient>
</defs>
</svg>
